/* XPM */
static char * logo32x32_xpm[] = {
"32 32 471 2",
"  	c None",
". 	c #9FA0A2",
"+ 	c #9E9FA0",
"@ 	c #737476",
"# 	c #9B9C9E",
"$ 	c #A9A9AB",
"% 	c #A5A6A8",
"& 	c #96979B",
"* 	c #B9BABC",
"= 	c #A8A9AB",
"- 	c #9E9FA1",
"; 	c #A2A3A7",
"> 	c #9FA0A3",
", 	c #999A9D",
"' 	c #9D9EA1",
") 	c #87898C",
"! 	c #797A7E",
"~ 	c #ACADAF",
"{ 	c #B6B7B9",
"] 	c #B1B2B5",
"^ 	c #AFB0B3",
"/ 	c #939497",
"( 	c #A4A4A7",
"_ 	c #9E9FA2",
": 	c #9A9B9F",
"< 	c #98999D",
"[ 	c #6E6F71",
"} 	c #AEAFB1",
"| 	c #87888D",
"1 	c #838589",
"2 	c #808186",
"3 	c #6A6C71",
"4 	c #B2B2B6",
"5 	c #AFAFB2",
"6 	c #ABACB0",
"7 	c #A9AAAD",
"8 	c #AAACAF",
"9 	c #A3A4A7",
"0 	c #9E9FA3",
"a 	c #9A9CA0",
"b 	c #97989D",
"c 	c #939499",
"d 	c #909196",
"e 	c #949599",
"f 	c #8B8C91",
"g 	c #85878C",
"h 	c #828489",
"i 	c #808287",
"j 	c #424448",
"k 	c #A8A9AC",
"l 	c #ADAFB2",
"m 	c #A7A9AC",
"n 	c #A4A6AA",
"o 	c #A0A2A6",
"p 	c #9D9FA3",
"q 	c #999CA0",
"r 	c #96989C",
"s 	c #939599",
"t 	c #8F9196",
"u 	c #8C8E93",
"v 	c #898C90",
"w 	c #86898D",
"x 	c #84868B",
"y 	c #7B7E83",
"z 	c #DBDBDD",
"A 	c #C4C6C8",
"B 	c #ACAEB1",
"C 	c #A4A5A9",
"D 	c #A0A3A6",
"E 	c #9A9DA0",
"F 	c #979A9E",
"G 	c #95979B",
"H 	c #919498",
"I 	c #8F9295",
"J 	c #8C8F93",
"K 	c #8A8C91",
"L 	c #888A8F",
"M 	c #898B8F",
"N 	c #AFB1B4",
"O 	c #B9BBBE",
"P 	c #C9CBCD",
"Q 	c #CBCDCF",
"R 	c #ADB0B3",
"S 	c #AAADB0",
"T 	c #A8AAAE",
"U 	c #A6A8AC",
"V 	c #A1A3A6",
"W 	c #929499",
"X 	c #7B7D83",
"Y 	c #77797F",
"Z 	c #929599",
"` 	c #94989C",
" .	c #919499",
"..	c #909397",
"+.	c #868A8E",
"@.	c #898D91",
"#.	c #A5A7AA",
"$.	c #7F8387",
"%.	c #686C71",
"&.	c #777A7E",
"*.	c #CCCED0",
"=.	c #BDBFC1",
"-.	c #BBBDC0",
";.	c #B8BABD",
">.	c #B5B8BA",
",.	c #B4B6B9",
"'.	c #B1B4B7",
").	c #AFB1B5",
"!.	c #ACAFB2",
"~.	c #76797F",
"{.	c #4C5366",
"].	c #576486",
"^.	c #4F6195",
"/.	c #5467A3",
"(.	c #5E6E99",
"_.	c #546084",
":.	c #6B707E",
"<.	c #919599",
"[.	c #898D92",
"}.	c #7D8186",
"|.	c #7B7F85",
"1.	c #7C8086",
"2.	c #7B7F84",
"3.	c #7E8287",
"4.	c #B6B8BC",
"5.	c #C6C8CB",
"6.	c #C3C5C8",
"7.	c #C1C3C6",
"8.	c #BFC1C4",
"9.	c #BDBFC2",
"0.	c #BBBDC1",
"a.	c #B5B7BA",
"b.	c #4B4F5D",
"c.	c #3F528C",
"d.	c #869DD7",
"e.	c #4E69BB",
"f.	c #4D6ABB",
"g.	c #4B67B5",
"h.	c #6882C8",
"i.	c #576FB3",
"j.	c #6075B2",
"k.	c #9196A5",
"l.	c #868990",
"m.	c #94989D",
"n.	c #92969C",
"o.	c #4C4E53",
"p.	c #9B9DA1",
"q.	c #D0D3D7",
"r.	c #CDD0D3",
"s.	c #CBCED2",
"t.	c #CACCD0",
"u.	c #343A4E",
"v.	c #395194",
"w.	c #6B87C8",
"x.	c #3F62BF",
"y.	c #4267C7",
"z.	c #4168CD",
"A.	c #3F68D0",
"B.	c #5F83D7",
"C.	c #4873D7",
"D.	c #718DCD",
"E.	c #8595C8",
"F.	c #606B91",
"G.	c #A7AAAE",
"H.	c #AEB2B8",
"I.	c #AFB2B8",
"J.	c #93979D",
"K.	c #2C2D30",
"L.	c #D5D7DA",
"M.	c #DBDCE0",
"N.	c #D9DBDF",
"O.	c #DADCE0",
"P.	c #7D7F87",
"Q.	c #0A226D",
"R.	c #5275C0",
"S.	c #4975D1",
"T.	c #3160CD",
"U.	c #3968D3",
"V.	c #3D6BD5",
"W.	c #3969D3",
"X.	c #87A6E6",
"Y.	c #6088DB",
"Z.	c #4975D0",
"`.	c #4C70C7",
" +	c #4965AF",
".+	c #4D5980",
"++	c #CACDD3",
"@+	c #C6C9CF",
"#+	c #CBCED4",
"$+	c #39393B",
"%+	c #ECEDF0",
"&+	c #E9EAEE",
"*+	c #E9EAED",
"=+	c #EAEBEF",
"-+	c #253150",
";+	c #6683C4",
">+	c #FCFDFF",
",+	c #386FD4",
"'+	c #346AD3",
")+	c #4B7DDA",
"!+	c #5A89DE",
"~+	c #5A8ADE",
"{+	c #6F97E1",
"]+	c #497BD9",
"^+	c #3B74D7",
"/+	c #285DC8",
"(+	c #4E71BB",
"_+	c #16368F",
":+	c #C8C9CD",
"<+	c #DEE0E5",
"[+	c #E0E2E7",
"}+	c #828487",
"|+	c #E4E5E6",
"1+	c #E3E4E5",
"2+	c #EAEBEC",
"3+	c #F8F9F9",
"4+	c #F7F8F9",
"5+	c #C4C4C5",
"6+	c #233E7B",
"7+	c #416DC3",
"8+	c #EEF4FC",
"9+	c #588FDF",
"0+	c #4F86DD",
"a+	c #3C78D8",
"b+	c #2F6DD5",
"c+	c #306ED5",
"d+	c #B0C8EF",
"e+	c #6797E1",
"f+	c #3470D5",
"g+	c #387DDA",
"h+	c #5681CE",
"i+	c #294EA5",
"j+	c #929BB2",
"k+	c #F4F5F7",
"l+	c #F4F4F7",
"m+	c #EBECEE",
"n+	c #DBDCDD",
"o+	c #DDDEDF",
"p+	c #A1A2A4",
"q+	c #B3B5B5",
"r+	c #FFFFFF",
"s+	c #A0A1A5",
"t+	c #3F63A9",
"u+	c #85A9DF",
"v+	c #8AB5EA",
"w+	c #4085DC",
"x+	c #4084DC",
"y+	c #3F81DB",
"z+	c #3C7FDA",
"A+	c #D6E5F8",
"B+	c #6198E1",
"C+	c #3E81DA",
"D+	c #4194E4",
"E+	c #558BD7",
"F+	c #3F68B7",
"G+	c #7A8CB3",
"H+	c #ABABAD",
"I+	c #B0B1B1",
"J+	c #FCFEFC",
"K+	c #FAFAF9",
"L+	c #F9FAF9",
"M+	c #999C9F",
"N+	c #3E68B4",
"O+	c #76A2DD",
"P+	c #83B4E9",
"Q+	c #BAD6F4",
"R+	c #67A8E6",
"S+	c #4A93E0",
"T+	c #4B94E0",
"U+	c #74ADE7",
"V+	c #5097E1",
"W+	c #6AA8E6",
"X+	c #4992DF",
"Y+	c #4C99E2",
"Z+	c #5790D8",
"`+	c #517BC4",
" @	c #7C94BA",
".@	c #FBFCF9",
"+@	c #F7F8F6",
"@@	c #A6A7A6",
"#@	c #898B8C",
"$@	c #E9EBEB",
"%@	c #F3F4F4",
"&@	c #EEEFEE",
"*@	c #EDEFEF",
"=@	c #EEEFEF",
"-@	c #B3B4B3",
";@	c #436DB3",
">@	c #79A6DE",
",@	c #519ADF",
"'@	c #7CBAEB",
")@	c #67B3E9",
"!@	c #88C5EF",
"~@	c #A6D3F3",
"{@	c #96C9F0",
"]@	c #90C6EF",
"^@	c #77B6EB",
"/@	c #79B5E8",
"(@	c #BED7F1",
"_@	c #C4D6F0",
":@	c #A5B3C8",
"<@	c #E9EBEA",
"[@	c #E9EAE9",
"}@	c #EDEEED",
"|@	c #E7E8E8",
"1@	c #DADDDC",
"2@	c #828486",
"3@	c #595A5C",
"4@	c #E6E8EB",
"5@	c #E2E4E6",
"6@	c #E0E3E5",
"7@	c #D7D9DA",
"8@	c #446598",
"9@	c #83ADE1",
"0@	c #63A4E0",
"a@	c #73BCEB",
"b@	c #9FD8F5",
"c@	c #85CFF3",
"d@	c #8DD3F4",
"e@	c #BEE7F9",
"f@	c #82CDF2",
"g@	c #7BC6EF",
"h@	c #8CC8EF",
"i@	c #65A5E0",
"j@	c #9BBDE7",
"k@	c #96B6E4",
"l@	c #C4C8CE",
"m@	c #D9DDDF",
"n@	c #DADEE0",
"o@	c #7C7E81",
"p@	c #000002",
"q@	c #D2D5D9",
"r@	c #D4D7DC",
"s@	c #CACED3",
"t@	c #CCD0D5",
"u@	c #7B8A9F",
"v@	c #8DB7E9",
"w@	c #77B0E5",
"x@	c #89CAEF",
"y@	c #A8E1F8",
"z@	c #A6E6FB",
"A@	c #B3EBFC",
"B@	c #A2E6FC",
"C@	c #9DE3FA",
"D@	c #94D8F5",
"E@	c #85C6EE",
"F@	c #D2E6F6",
"G@	c #84B0E4",
"H@	c #7DA1D1",
"I@	c #CED2D5",
"J@	c #CFD3D8",
"K@	c #3D3F42",
"L@	c #D4D7D9",
"M@	c #CACED2",
"N@	c #C1C5CA",
"O@	c #C0C4CA",
"P@	c #BFC3CA",
"Q@	c #BEC0C5",
"R@	c #81A4C7",
"S@	c #94C9F0",
"T@	c #98D6F6",
"U@	c #A5E6FB",
"V@	c #C2F3FE",
"W@	c #CEF5FF",
"X@	c #AFF0FE",
"Y@	c #ADEDFD",
"Z@	c #A5E4FA",
"`@	c #A9DAF5",
" #	c #7DB8E9",
".#	c #C6DDF5",
"+#	c #BFC6CF",
"@#	c #BFC3C9",
"##	c #C1C5CB",
"$#	c #A6A9AD",
"%#	c #D1D3D7",
"&#	c #C3C6CB",
"*#	c #BABDC2",
"=#	c #B6B9BF",
"-#	c #B1B6BB",
";#	c #A4CDE7",
">#	c #9DDCF9",
",#	c #ABEAFC",
"'#	c #B5F1FE",
")#	c #BDF3FE",
"!#	c #AFEFFE",
"~#	c #B8ECFC",
"{#	c #99D7F6",
"]#	c #8BC4F1",
"^#	c #BFCAD5",
"/#	c #B5B8BE",
"(#	c #B8BBC0",
"_#	c #B4B7BA",
":#	c #B2B5B9",
"<#	c #A7ABAF",
"[#	c #A8ABB0",
"}#	c #AEB0B4",
"|#	c #B1D1E2",
"1#	c #A3E2FC",
"2#	c #A6E7FC",
"3#	c #BBEFFD",
"4#	c #B5ECFD",
"5#	c #D1F3FD",
"6#	c #ADE3FC",
"7#	c #AFDBF4",
"8#	c #BAC0C6",
"9#	c #A6AAAE",
"0#	c #A8ACB0",
"a#	c #999B9F",
"b#	c #979A9F",
"c#	c #989B9F",
"d#	c #909398",
"e#	c #93969B",
"f#	c #95979C",
"g#	c #A9ABAE",
"h#	c #B0C3CE",
"i#	c #B6D1DF",
"j#	c #B2D2E2",
"k#	c #BACCD7",
"l#	c #B4B9BD",
"m#	c #999B9E",
"n#	c #96999E",
"o#	c #8E9096",
"p#	c #7D7F86",
"q#	c #4E5055",
"r#	c #818489",
"s#	c #7F8287",
"t#	c #808388",
"u#	c #82858A",
"v#	c #3A3B3E",
"w#	c #535559",
"x#	c #717479",
"y#	c #313235",
"z#	c #97989C",
"A#	c #6E7175",
"B#	c #6F7276",
"C#	c #727479",
"D#	c #6F7275",
"E#	c #5F6266",
"F#	c #606266",
"G#	c #606367",
"H#	c #5F6165",
"I#	c #58595D",
"J#	c #76777A",
"K#	c #505256",
"L#	c #525357",
"M#	c #525458",
"N#	c #4B4D51",
"O#	c #28292B",
"P#	c #56585B",
"Q#	c #414245",
"R#	c #27282B",
"S#	c #4D4F52",
"T#	c #4C4E52",
"U#	c #35373A",
"V#	c #44464A",
"W#	c #18181A",
"X#	c #4F5154",
"Y#	c #45474B",
"Z#	c #45474A",
"`#	c #444649",
" $	c #434549",
".$	c #383A3D",
"+$	c #17171A",
"@$	c #1A1C1E",
"#$	c #414346",
"$$	c #393A3E",
"%$	c #37383C",
"&$	c #19191B",
"*$	c #222325",
"=$	c #232427",
"-$	c #1F2023",
"                                                                ",
"                              . + @                             ",
"                            # $ % &                             ",
"                  * =       - ; > ,       ' ) !                 ",
"              ~ { ] ^ /     ( _ : < [   } | 1 2 3               ",
"                4 5 6 7 8 9 0 a b c d e f g h i j               ",
"                k l 8 m n o p q r s t u v w x y                 ",
"        z       A B 8 m C D 0 E F G H I J K L M       N         ",
"        O O P Q N R S T U V W X Y w Z `  .....+.@.#.$.%.&.      ",
"      *.=.-.;.>.,.'.).!.~.{.].^./.(._.:.<.[.}.|.1.2.1.1.3.      ",
"      4.5.6.7.8.9.0.a.b.c.d.e.f.g.h.i.j.k.l.m.m.m.m.m.m.n.o.    ",
"        p.q.r.s.t.t.u.v.w.x.y.z.A.B.C.D.E.F.G.H.H.H.I.J.K.      ",
"          L.M.N.O.P.Q.R.S.T.U.V.W.X.Y.Z.`. +.+++@+@+#+$+        ",
"          %+&+*+=+-+;+>+,+'+)+!+~+{+]+^+/+(+_+:+<+<+[+}+        ",
"    |+1+2+3+4+4+5+6+7+8+9+0+a+b+c+d+e+f+g+h+i+j+k+l+l+m+n+o+p+  ",
"  q+r+r+r+r+r+r+s+t+u+v+w+x+y+y+z+A+B+C+D+E+F+G+r+r+r+r+r+r+H+  ",
"  I+J+K+L+L+L+K+M+N+O+P+Q+R+S+T+U+V+W+X+Y+Z+`+ @.@+@+@+@+@+@@@  ",
"  #@o+$@%@&@*@=@-@;@>@,@'@)@!@~@r+{@]@^@/@(@_@:@<@[@[@}@|@1@2@  ",
"        3@4@5@6@7@8@9@0@a@b@c@d@e@f@g@h@i@j@k@l@m@m@n@o@p@      ",
"          q@r@s@t@u@v@w@x@y@z@A@B@C@D@E@F@G@H@I@s@s@J@K@        ",
"        L@M@N@O@P@Q@R@S@T@U@V@W@X@Y@Z@`@ #.#+#@#O@O@##$#        ",
"      %#&#*#=#=#=#=#-#;#>#,#'#r+)#!#~#{#]#^#/#=#=#=#=#=#(#      ",
"      _#:#<#[#[#[#[#[#}#|#1#2#3#4#5#6#7#8#9#[#[#[#[#[#[#0#o.    ",
"      a#b#c#d#e#F F F F f#g#h#i#j#k#l#m#n#F F F n#o#n#c#p#      ",
"        ~.q#    x h h h h h r#s#s#t#h h h h h u#v#  w#x#y#      ",
"                z#A#B#B#B#B#B#B#B#B#B#B#B#B#B#C#                ",
"                D#E#E#F#G#F#E#E#E#E#F#G#E#E#E#H#I#              ",
"              J#K#L#M#N#O#v#P#L#L#M#Q#R#S#M#L#M#T#              ",
"                U#V#V#W#    X#Y#Z#`#       $Y#.$+$              ",
"                    @$      #$$$$$%$        &$                  ",
"                            *$=$=$-$                            ",
"                                                                "};
