/* XPM */
static char * logo16x16_xpm[] = {
"16 16 142 2",
"  	c None",
". 	c #A2A3A5",
"+ 	c #9E9FA1",
"@ 	c #B3B3B6",
"# 	c #A6A8AB",
"$ 	c #AAABAF",
"% 	c #9EA0A3",
"& 	c #97989C",
"* 	c #8C8E91",
"= 	c #8E8F93",
"- 	c #83858A",
"; 	c #4C4D51",
"> 	c #B1B3B6",
", 	c #A8AAAD",
"' 	c #A2A4A8",
") 	c #9DA0A3",
"! 	c #97999D",
"~ 	c #8F9195",
"{ 	c #898C90",
"] 	c #84878B",
"^ 	c #B9BBBE",
"/ 	c #BFC2C4",
"( 	c #AFB2B5",
"_ 	c #AFB1B4",
": 	c #82858A",
"< 	c #6B738A",
"[ 	c #6A738E",
"} 	c #7A7F8B",
"| 	c #919498",
"1 	c #82868B",
"2 	c #878B8F",
"3 	c #75797F",
"4 	c #7A7D82",
"5 	c #BFC1C5",
"6 	c #C6C9CC",
"7 	c #C8CBCD",
"8 	c #555E76",
"9 	c #5E79BF",
"0 	c #4768C5",
"a 	c #5576CB",
"b 	c #5A77C3",
"c 	c #8088A2",
"d 	c #A3A6AA",
"e 	c #A1A5AB",
"f 	c #9DA1A6",
"g 	c #54565A",
"h 	c #D0D1D3",
"i 	c #E2E3E7",
"j 	c #9A9EA7",
"k 	c #7389C0",
"l 	c #3367D1",
"m 	c #4776D8",
"n 	c #658EDF",
"o 	c #4979D8",
"p 	c #4168BF",
"q 	c #7C87A9",
"r 	c #D3D5DB",
"s 	c #A3A5A9",
"t 	c #F4F4F5",
"u 	c #F9F9FA",
"v 	c #FFFFFF",
"w 	c #69799C",
"x 	c #96B6E7",
"y 	c #4484DC",
"z 	c #3979D8",
"A 	c #82AAE7",
"B 	c #4B85DB",
"C 	c #4A8ADB",
"D 	c #556FAB",
"E 	c #FAFAFC",
"F 	c #F2F3F3",
"G 	c #F1F2F1",
"H 	c #F6F7F6",
"I 	c #F9FAF8",
"J 	c #6A80A8",
"K 	c #72A8E3",
"L 	c #85BDED",
"M 	c #6FAFE8",
"N 	c #9CC6EF",
"O 	c #6EADE7",
"P 	c #77AEE6",
"Q 	c #8AA3CC",
"R 	c #F6F6F2",
"S 	c #F3F4F2",
"T 	c #F1F3F1",
"U 	c #7C7E7F",
"V 	c #B4B6B9",
"W 	c #D8DCDF",
"X 	c #97A3B6",
"Y 	c #7BAFE7",
"Z 	c #93D1F2",
"` 	c #98DCF8",
" .	c #9FE0F9",
"..	c #87CBF0",
"+.	c #97BEE9",
"@.	c #A8BBD6",
"#.	c #D2D6D9",
"$.	c #9EA1A5",
"%.	c #C7CACE",
"&.	c #BBBFC5",
"*.	c #BDBFC4",
"=.	c #9BBCD7",
"-.	c #A0E1FB",
";.	c #D7F8FF",
">.	c #B1F1FE",
",.	c #A9E2F9",
"'.	c #A1C9EC",
").	c #BDBFC5",
"!.	c #B7BBC0",
"~.	c #A4A7AB",
"{.	c #9C9FA4",
"].	c #A0A3A7",
"^.	c #A2A3A7",
"/.	c #A6BECB",
"(.	c #B2DEEE",
"_.	c #BFE3F1",
":.	c #ACC6D5",
"<.	c #A5A7AA",
"[.	c #9DA0A5",
"}.	c #A2A5A9",
"|.	c #707277",
"1.	c #535459",
"2.	c #828489",
"3.	c #797B80",
"4.	c #787B80",
"5.	c #77787D",
"6.	c #77787C",
"7.	c #787A7F",
"8.	c #5C5E62",
"9.	c #585A5E",
"0.	c #4A4D50",
"a.	c #5A5C60",
"b.	c #595B5F",
"c.	c #4B4D51",
"d.	c #595C60",
"e.	c #343539",
"f.	c #252629",
"g.	c #444649",
"h.	c #3F4144",
"i.	c #2C2E30",
"j.	c #1B1D1F",
"k.	c #1A1B1D",
"                                ",
"              . +               ",
"        @ # $ % & * = - ;       ",
"        > , ' ) ! ~ { ]         ",
"    ^ / ( _ : < [ } | 1 2 3 4   ",
"    5 6 7 8 9 0 a b c d e f g   ",
"    h i j k l m n o p q r s     ",
"  t u v w x y z A B C D v E F   ",
"  G H I J K L M N O P Q R S T U ",
"    V W X Y Z `  ...+.@.#.$.    ",
"    %.&.*.=.-.;.>.,.'.).&.!.    ",
"    ~.{.].^./.(._.:.<.].[.}.|.  ",
"    1.  2.3.4.5.6.7.3.4         ",
"        8.9.0.a.b.c.9.d.        ",
"        e.f.  g.h.    i.        ",
"              j.k.              "};
